<svg width="151" height="51" viewBox="0 0 151 51" fill="none" xmlns="http://www.w3.org/2000/svg">
<rect x="0.5" y="0.5" width="150" height="50" rx="8" fill="white"/>
<rect x="0.5" y="0.5" width="150" height="50" rx="8" stroke="#EBEFF6"/>
<path d="M88.5095 38.4609C82.7244 42.725 74.3394 45 67.12 45C56.9973 45 47.8842 41.256 40.9898 35.0289C40.4482 34.5392 40.9335 33.8719 41.5835 34.2532C49.0239 38.5823 58.2236 41.1866 67.7267 41.1866C74.1357 41.1866 81.1861 39.8606 87.6688 37.1089C88.6482 36.6929 89.4672 37.7503 88.5095 38.4609Z" fill="#FF9900"/>
<path d="M90.9146 35.7091C90.1779 34.7644 86.0265 35.2628 84.1632 35.4838C83.5955 35.5531 83.5088 35.0591 84.0202 34.7038C87.3265 32.3768 92.7519 33.0484 93.3846 33.8284C94.0172 34.6128 93.2199 40.0512 90.1129 42.6468C89.6362 43.0455 89.1812 42.8332 89.3935 42.3045C90.0912 40.5625 91.6556 36.6581 90.9146 35.7091Z" fill="#FF9900"/>
<path d="M84.293 18.276V16.014C84.293 15.6716 84.553 15.442 84.865 15.442H94.9921C95.3171 15.442 95.5771 15.676 95.5771 16.014V17.951C95.5728 18.276 95.2998 18.7007 94.8144 19.3723L89.5667 26.8647C91.5167 26.8171 93.5751 27.1074 95.3431 28.1041C95.7418 28.3294 95.8501 28.6587 95.8804 28.9837V31.3974C95.8804 31.7268 95.5164 32.1124 95.1351 31.9131C92.0194 30.2794 87.881 30.1018 84.436 31.9304C84.085 32.1211 83.7167 31.7398 83.7167 31.4104V29.1181C83.7167 28.7497 83.721 28.1214 84.0894 27.5624L90.1691 18.8437H84.878C84.553 18.8437 84.293 18.614 84.293 18.276Z" fill="#221F1F"/>
<path d="M47.3506 32.3899H44.2696C43.9749 32.3682 43.7409 32.1472 43.7193 31.8656V16.0531C43.7193 15.7367 43.9836 15.4854 44.3129 15.4854H47.186C47.485 15.4984 47.7233 15.7281 47.745 16.0141V18.0811H47.8013C48.551 16.0834 49.9593 15.1517 51.8573 15.1517C53.7857 15.1517 54.9903 16.0834 55.857 18.0811C56.6024 16.0834 58.2967 15.1517 60.1124 15.1517C61.4037 15.1517 62.8164 15.6847 63.6787 16.8807C64.6537 18.2111 64.4544 20.1438 64.4544 21.8381L64.4501 31.8179C64.4501 32.1342 64.1857 32.3899 63.8564 32.3899H60.7797C60.4721 32.3682 60.2251 32.1212 60.2251 31.8179V23.4371C60.2251 22.7698 60.2857 21.1058 60.1384 20.4731C59.9087 19.4114 59.2197 19.1124 58.327 19.1124C57.5817 19.1124 56.8017 19.6108 56.4854 20.4081C56.169 21.2055 56.1994 22.5401 56.1994 23.4371V31.8179C56.1994 32.1342 55.935 32.3899 55.6057 32.3899H52.529C52.217 32.3682 51.9743 32.1212 51.9743 31.8179L51.97 23.4371C51.97 21.6735 52.2603 19.0778 50.072 19.0778C47.8576 19.0778 47.9443 21.6085 47.9443 23.4371V31.8179C47.9443 32.1342 47.68 32.3899 47.3506 32.3899Z" fill="#221F1F"/>
<path d="M104.295 15.1517C108.867 15.1517 111.342 19.0778 111.342 24.0698C111.342 28.8929 108.607 32.7192 104.295 32.7192C99.8061 32.7192 97.3621 28.7932 97.3621 23.9008C97.3621 18.9781 99.8365 15.1517 104.295 15.1517ZM104.321 18.3801C102.051 18.3801 101.908 21.4741 101.908 23.4025C101.908 25.3352 101.877 29.4605 104.295 29.4605C106.683 29.4605 106.796 26.1325 106.796 24.1045C106.796 22.7698 106.74 21.1751 106.336 19.9098C105.99 18.8091 105.301 18.3801 104.321 18.3801Z" fill="#221F1F"/>
<path d="M117.269 32.3899H114.201C113.894 32.3682 113.647 32.1212 113.647 31.8179L113.642 16.0011C113.668 15.7107 113.924 15.4854 114.236 15.4854H117.092C117.36 15.4984 117.581 15.6804 117.642 15.9274V18.3454H117.698C118.561 16.1831 119.77 15.1517 121.897 15.1517C123.28 15.1517 124.628 15.6501 125.494 17.0151C126.3 18.2804 126.3 20.4081 126.3 21.9378V31.8916C126.266 32.1689 126.01 32.3899 125.707 32.3899H122.617C122.335 32.3682 122.101 32.1602 122.071 31.8916V23.3028C122.071 21.5738 122.27 19.0431 120.142 19.0431C119.393 19.0431 118.704 19.5458 118.361 20.3084C117.928 21.2748 117.872 22.2368 117.872 23.3028V31.8179C117.867 32.1342 117.599 32.3899 117.269 32.3899Z" fill="#221F1F"/>
<path d="M76.2197 24.8368V24.1694C73.9923 24.1694 71.6393 24.6461 71.6393 27.2721C71.6393 28.6025 72.3283 29.5038 73.5113 29.5038C74.378 29.5038 75.1537 28.9708 75.6433 28.1041C76.25 27.0381 76.2197 26.0371 76.2197 24.8368ZM79.3267 32.3465C79.123 32.5285 78.8284 32.5415 78.5987 32.4202C77.576 31.5708 77.394 31.1765 76.8307 30.3661C75.1407 32.0908 73.9447 32.6065 71.752 32.6065C69.1606 32.6065 67.1413 31.0075 67.1413 27.8051C67.1413 25.3048 68.4976 23.6017 70.426 22.7697C72.0986 22.0331 74.4343 21.9031 76.2197 21.6994V21.3007C76.2197 20.5684 76.276 19.7017 75.847 19.069C75.47 18.5014 74.7507 18.2674 74.118 18.2674C72.9436 18.2674 71.895 18.8697 71.6393 20.1177C71.5873 20.3951 71.3836 20.6681 71.1063 20.6811L68.1163 20.3604C67.8649 20.3041 67.5876 20.1004 67.6569 19.7147C68.3459 16.092 71.6176 15 74.547 15C76.0463 15 78.005 15.3987 79.188 16.534C80.6874 17.9337 80.5444 19.8014 80.5444 21.8337V26.6351C80.5444 28.0781 81.1424 28.7108 81.7057 29.4908C81.905 29.7681 81.9484 30.1018 81.697 30.3098C81.0687 30.8341 79.9507 31.8092 79.3354 32.3552L79.3267 32.3465Z" fill="#221F1F"/>
<path d="M35.8284 24.8368V24.1694C33.601 24.1694 31.248 24.6461 31.248 27.2721C31.248 28.6025 31.937 29.5038 33.12 29.5038C33.9867 29.5038 34.7624 28.9708 35.2521 28.1041C35.8587 27.0381 35.8284 26.0371 35.8284 24.8368ZM38.9354 32.3465C38.7317 32.5285 38.4371 32.5415 38.2074 32.4202C37.1847 31.5708 37.0027 31.1765 36.4394 30.3661C34.7494 32.0908 33.5534 32.6065 31.3607 32.6065C28.7693 32.6065 26.75 31.0075 26.75 27.8051C26.75 25.3048 28.1063 23.6017 30.0347 22.7697C31.7074 22.0331 34.043 21.9031 35.8284 21.6994V21.3007C35.8284 20.5684 35.8847 19.7017 35.4557 19.069C35.0787 18.5014 34.3594 18.2674 33.7267 18.2674C32.5524 18.2674 31.5037 18.8697 31.248 20.1177C31.196 20.3951 30.9924 20.6681 30.715 20.6811L27.725 20.3604C27.4737 20.3041 27.1963 20.1004 27.2657 19.7147C27.9547 16.092 31.2264 15 34.1557 15C35.6551 15 37.6137 15.3987 38.7967 16.534C40.2961 17.9337 40.1531 19.8014 40.1531 21.8337V26.6351C40.1531 28.0781 40.7511 28.7108 41.3144 29.4908C41.5138 29.7681 41.5571 30.1018 41.3058 30.3098C40.6774 30.8341 39.5594 31.8092 38.9441 32.3552L38.9354 32.3465Z" fill="#221F1F"/>
</svg>
