<svg width="151" height="51" viewBox="0 0 151 51" fill="none" xmlns="http://www.w3.org/2000/svg">
<rect x="0.5" y="0.5" width="150" height="50" rx="8" fill="white"/>
<rect x="0.5" y="0.5" width="150" height="50" rx="8" stroke="#EBEFF6"/>
<path d="M69.8532 30.3848C69.8532 34.5489 66.5957 37.6174 62.5979 37.6174C58.6001 37.6174 55.3426 34.5489 55.3426 30.3848C55.3426 26.1913 58.6001 23.1522 62.5979 23.1522C66.5957 23.1522 69.8532 26.1913 69.8532 30.3848ZM66.6772 30.3848C66.6772 27.7826 64.7892 26.0022 62.5979 26.0022C60.4066 26.0022 58.5186 27.7826 58.5186 30.3848C58.5186 32.9609 60.4066 34.7674 62.5979 34.7674C64.7892 34.7674 66.6772 32.9576 66.6772 30.3848Z" fill="#EA4335"/>
<path d="M85.507 30.3848C85.507 34.5489 82.2494 37.6174 78.2516 37.6174C74.2538 37.6174 70.9963 34.5489 70.9963 30.3848C70.9963 26.1946 74.2538 23.1522 78.2516 23.1522C82.2494 23.1522 85.507 26.1913 85.507 30.3848ZM82.3309 30.3848C82.3309 27.7826 80.4429 26.0022 78.2516 26.0022C76.0603 26.0022 74.1723 27.7826 74.1723 30.3848C74.1723 32.9609 76.0603 34.7674 78.2516 34.7674C80.4429 34.7674 82.3309 32.9576 82.3309 30.3848Z" fill="#FBBC05"/>
<path d="M100.506 23.5891V36.5739C100.506 41.9152 97.3557 44.0967 93.6318 44.0967C90.1264 44.0967 88.0167 41.7522 87.221 39.8348L89.9862 38.6837C90.4786 39.8609 91.6851 41.25 93.6286 41.25C96.0122 41.25 97.4894 39.7793 97.4894 37.0109V35.9707H97.3785C96.6676 36.8478 95.2981 37.6141 93.5699 37.6141C89.9536 37.6141 86.6406 34.4641 86.6406 30.4109C86.6406 26.3283 89.9536 23.1522 93.5699 23.1522C95.2948 23.1522 96.6644 23.9185 97.3785 24.7696H97.4894V23.5924H100.506V23.5891ZM97.7144 30.4109C97.7144 27.8641 96.0155 26.0022 93.8536 26.0022C91.6623 26.0022 89.8264 27.8641 89.8264 30.4109C89.8264 32.9315 91.6623 34.7674 93.8536 34.7674C96.0155 34.7674 97.7144 32.9315 97.7144 30.4109Z" fill="#4285F4"/>
<path d="M105.479 15.9785V37.1742H102.381V15.9785H105.479Z" fill="#34A853"/>
<path d="M117.551 32.765L120.016 34.4084C119.22 35.5856 117.303 37.6139 113.99 37.6139C109.881 37.6139 106.813 34.4378 106.813 30.3813C106.813 26.0802 109.908 23.1487 113.635 23.1487C117.388 23.1487 119.224 26.1356 119.824 27.7497L120.153 28.5715L110.485 32.5758C111.225 34.0269 112.376 34.7671 113.99 34.7671C115.607 34.7671 116.729 33.9715 117.551 32.765ZM109.963 30.1628L116.426 27.4791C116.07 26.5758 115.001 25.9465 113.742 25.9465C112.128 25.9465 109.881 27.3715 109.963 30.1628Z" fill="#EA4335"/>
<path d="M43.6165 28.503V25.4345H53.9566C54.0577 25.9693 54.1099 26.6019 54.1099 27.2866C54.1099 29.5888 53.4805 32.4356 51.4523 34.4638C49.4795 36.5182 46.9589 37.6138 43.6198 37.6138C37.4307 37.6138 32.2264 32.5725 32.2264 26.3834C32.2264 20.1943 37.4307 15.153 43.6198 15.153C47.0436 15.153 49.4827 16.4964 51.3153 18.2475L49.1501 20.4127C47.836 19.1801 46.0556 18.2214 43.6165 18.2214C39.097 18.2214 35.5623 21.8638 35.5623 26.3834C35.5623 30.903 39.097 34.5453 43.6165 34.5453C46.548 34.5453 48.2175 33.3682 49.2871 32.2986C50.1545 31.4312 50.7251 30.1921 50.9501 28.4997L43.6165 28.503Z" fill="#4285F4"/>
</svg>
