<svg xmlns="http://www.w3.org/2000/svg" viewBox="0 0 1920 1080" preserveAspectRatio="xMidYMid slice">
  <defs>
    <linearGradient id="g1" x1="0" y1="0" x2="1" y2="1">
      <stop offset="0%" stop-color="#2a8f86"/>
      <stop offset="100%" stop-color="#33a69c"/>
    </linearGradient>
  </defs>

  <rect width="1920" height="1080" fill="#f7f7f7"/>

  <!-- top-left shape shadow -->
  <path d="M0,0 H450 V70
           C450,120 410,120 390,150
           C360,190 330,170 290,220
           C250,270 260,340 120,360
           C70,365 40,330 0,300 Z"
        fill="#dfe8e8"/>

  <!-- top-left main shape -->
  <path d="M0,0 H450 V50
           C450,95 410,95 390,125
           C360,165 330,145 290,195
           C250,245 260,320 120,340
           C70,345 40,310 0,280 Z"
        fill="url(#g1)"/>

  <!-- right pale blob -->
  <path d="M1920,280
           C1750,320 1680,470 1750,580
           C1830,700 1780,770 1640,780
           C1490,790 1450,890 1420,980
           C1400,1040 1360,1080 1300,1080
           H1920 Z"
        fill="#edf4f4"/>

  <!-- bottom bar -->
  <rect x="0" y="1050" width="1920" height="30" fill="url(#g1)"/>

  <!-- dots top-right -->
  <g fill="#bdd7d5">
    <circle cx="1730" cy="60" r="4"/><circle cx="1770" cy="60" r="4"/><circle cx="1810" cy="60" r="4"/><circle cx="1850" cy="60" r="4"/>
    <circle cx="1730" cy="90" r="4"/><circle cx="1770" cy="90" r="4"/><circle cx="1810" cy="90" r="4"/><circle cx="1850" cy="90" r="4"/>
    <circle cx="1730" cy="120" r="4"/><circle cx="1770" cy="120" r="4"/><circle cx="1810" cy="120" r="4"/><circle cx="1850" cy="120" r="4"/>
  </g>

  <!-- dots bottom-left -->
  <g fill="#bdd7d5">
    <circle cx="80" cy="920" r="4"/><circle cx="120" cy="920" r="4"/><circle cx="160" cy="920" r="4"/><circle cx="200" cy="920" r="4"/>
    <circle cx="80" cy="950" r="4"/><circle cx="120" cy="950" r="4"/><circle cx="160" cy="950" r="4"/><circle cx="200" cy="950" r="4"/>
    <circle cx="80" cy="980" r="4"/><circle cx="120" cy="980" r="4"/><circle cx="160" cy="980" r="4"/><circle cx="200" cy="980" r="4"/>
  </g>
</svg>